<?xml version="1.0" encoding="UTF-8" standalone="no"?>
<svg
   xmlns:dc="http://purl.org/dc/elements/1.1/"
   xmlns:cc="http://creativecommons.org/ns#"
   xmlns:rdf="http://www.w3.org/1999/02/22-rdf-syntax-ns#"
   xmlns:svg="http://www.w3.org/2000/svg"
   xmlns="http://www.w3.org/2000/svg"
   viewBox="0 0 552.9375 134.325"
   height="134.325"
   width="552.9375"
   xml:space="preserve"
   version="1.1"
   id="svg2"><metadata
     id="metadata8"><rdf:RDF><cc:Work
         rdf:about=""><dc:format>image/svg+xml</dc:format><dc:type
           rdf:resource="http://purl.org/dc/dcmitype/StillImage" /></cc:Work></rdf:RDF></metadata><defs
     id="defs6"><clipPath
       id="clipPath38"
       clipPathUnits="userSpaceOnUse"><path
         id="path40"
         d="m 757.105,596.578 c 0,4.242 -1.214,8.184 -3.16,11.61 l -50.054,87.07 -58.328,101.347 c -11.633,19.797 -33.211,33.106 -57.836,33.106 l -218.227,0 c -13.094,0 -23.672,-10.609 -23.672,-23.68 0,-4.238 1.188,-8.156 3.156,-11.582 l 56.996,-99.191 51.383,-89.266 c 11.637,-19.781 33.211,-33.09 57.84,-33.09 l 218.25,0 c 13.043,0 23.652,10.61 23.652,23.676 z m 0,-76.984 c 0,-4.239 -1.214,-8.184 -3.16,-11.61 L 703.891,420.902 645.563,319.547 C 633.93,299.781 612.352,286.469 587.727,286.469 l -218.227,0 c -13.094,0 -23.672,10.578 -23.672,23.664 0,4.226 1.188,8.191 3.156,11.621 l 56.996,99.148 51.383,89.27 c 11.637,19.793 33.211,33.105 57.84,33.105 l 218.25,0 c 13.043,0 23.652,-10.613 23.652,-23.683 z" /></clipPath><linearGradient
       id="linearGradient42"
       spreadMethod="pad"
       gradientTransform="matrix(0,543.242,543.242,0,551.467,286.47)"
       gradientUnits="userSpaceOnUse"
       y2="0"
       x2="1"
       y1="0"
       x1="0"><stop
         id="stop44"
         offset="0"
         style="stop-opacity:1;stop-color:#86c03c" /><stop
         id="stop46"
         offset="1"
         style="stop-opacity:1;stop-color:#acdb3a" /></linearGradient><clipPath
       id="clipPath54"
       clipPathUnits="userSpaceOnUse"><path
         id="path56"
         d="m 677.262,233.168 c 0,-4.258 1.191,-8.203 3.136,-11.641 l 50.059,-87.05 58.297,-101.3559 C 800.445,13.3281 821.965,0 846.617,0 l 218.233,0 c 13.09,0 23.68,10.6211 23.68,23.7188 0,4.25 -1.19,8.1523 -3.16,11.6093 l -57,99.1489 -51.386,89.257 C 965.32,243.5 943.773,256.82 919.145,256.82 l -218.223,0 c -13.074,0 -23.66,-10.586 -23.66,-23.652 z m 411.268,286.426 c 0,-4.239 -1.19,-8.184 -3.14,-11.61 L 1035.33,420.902 977.008,319.547 C 965.32,299.781 943.797,286.469 919.172,286.469 l -218.25,0 c -13.074,0 -23.66,10.578 -23.66,23.664 0,4.226 1.191,8.191 3.136,11.621 l 57.028,99.148 51.355,89.27 c 11.664,19.793 33.184,33.105 57.836,33.105 l 218.263,0 c 13.09,0 23.65,-10.613 23.65,-23.683 z" /></clipPath><linearGradient
       id="linearGradient58"
       spreadMethod="pad"
       gradientTransform="matrix(0,543.272,543.272,0,882.895,0)"
       gradientUnits="userSpaceOnUse"
       y2="0"
       x2="1"
       y1="0"
       x1="0"><stop
         id="stop60"
         offset="0"
         style="stop-opacity:1;stop-color:#89155d" /><stop
         id="stop62"
         offset="1"
         style="stop-opacity:1;stop-color:#ea209a" /></linearGradient><clipPath
       id="clipPath70"
       clipPathUnits="userSpaceOnUse"><path
         id="path72"
         d="m 126.949,1071.48 c -3.672,-2.14 -6.476,-5.13 -8.504,-8.54 L 67.7891,976.223 8.84375,875.234 C -2.54688,855.285 -3.35547,829.98 8.88281,808.621 L 117.395,619.234 c 6.503,-11.343 20.964,-15.246 32.289,-8.75 3.687,2.094 6.507,5.094 8.507,8.536 l 57.704,98.714 51.894,88.969 c 11.383,19.957 12.234,45.246 -0.023,66.617 L 159.27,1062.71 c -6.504,11.34 -20.965,15.25 -32.321,8.77 z M 322.605,777.613 431.113,588.238 c 12.207,-21.363 11.399,-46.691 0.032,-66.633 L 379.246,432.66 321.539,333.922 c -2.012,-3.449 -4.793,-6.438 -8.496,-8.547 -11.336,-6.523 -25.824,-2.566 -32.316,8.789 L 172.234,523.512 c -12.261,21.371 -11.421,46.687 -0.054,66.625 l 58.945,100.976 50.652,86.731 c 2.024,3.441 4.836,6.426 8.52,8.558 11.355,6.481 25.801,2.539 32.308,-8.789 z" /></clipPath><linearGradient
       id="linearGradient74"
       spreadMethod="pad"
       gradientTransform="matrix(0,752.38,752.38,0,219.986,322.23)"
       gradientUnits="userSpaceOnUse"
       y2="0"
       x2="1"
       y1="0"
       x1="0"><stop
         id="stop76"
         offset="0"
         style="stop-opacity:1;stop-color:#449297" /><stop
         id="stop78"
         offset="1"
         style="stop-opacity:1;stop-color:#71b4b5" /></linearGradient></defs><g
     transform="matrix(1.25,0,0,-1.25,0,134.325)"
     id="g10"><g
       transform="scale(0.1,0.1)"
       id="g12"><path
         id="path14"
         style="fill:#ffffff;fill-opacity:1;fill-rule:nonzero;stroke:none"
         d="m 2157.49,315.355 c -70.83,0 -127,60.079 -127,135.274 0,78.738 56.17,135.211 127,135.211 70.84,0 127.01,-56.473 127.01,-135.211 0,-75.195 -56.17,-135.274 -127.01,-135.274 z m 0,308.59 c -94.14,0 -165.12,-74.511 -165.12,-173.316 0,-95.606 74.07,-173.379 165.12,-173.379 51.02,0 96.7,26.523 127.01,64.805 l 0,-45.821 c 0,-75.195 -56.17,-135.254 -127.01,-135.254 l 0,-38.125 c 91.06,0 165.13,77.774 165.13,173.379 l 0,154.395 c 0,98.805 -70.99,173.316 -165.13,173.316" /><path
         id="path16"
         style="fill:#ffffff;fill-opacity:1;fill-rule:nonzero;stroke:none"
         d="m 1391.53,315.355 c -70.83,0 -127.01,60.079 -127.01,135.274 0,78.738 56.18,135.211 127.01,135.211 70.83,0 127,-56.473 127,-135.211 0,-75.195 -56.17,-135.274 -127,-135.274 z m 0,308.59 c -54.08,0 -100.47,-26.707 -130.2,-66.367 l 0,160.891 -38.12,0 0,-197.508 c 0,-68.398 4.12,-91.055 5.51,-99.688 l 0.09,0.04 c 13.3,-81.68 81.18,-144.063 162.72,-144.063 91.04,0 165.11,77.773 165.11,173.379 0,98.805 -70.98,173.316 -165.11,173.316" /><path
         id="path18"
         style="fill:#ffffff;fill-opacity:1;fill-rule:nonzero;stroke:none"
         d="m 1877.88,285.688 39.2305,0 0,329.742 -39.2305,0 0,-329.742 z" /><path
         id="path20"
         style="fill:#ffffff;fill-opacity:1;fill-rule:nonzero;stroke:none"
         d="m 3247.06,370.668 -2.75,-3.086 c -31.07,-34.59 -66.3,-52.148 -104.78,-52.148 -71.92,0 -128.23,59.394 -128.23,135.195 0,76.367 55.19,135.211 125.64,135.211 47.24,0 78.02,-24.832 104.27,-51.719 l 2.97,-3.027 27.78,28.625 -2.76,2.859 c -27.02,28.195 -66.43,60.547 -131.61,60.547 -92.69,0 -168.11,-77.371 -168.11,-172.496 0,-95.664 75.42,-172.5 168.11,-172.5 53.23,0 94.65,20.078 134.37,65.117 l 2.71,3.106 -27.61,24.316" /><path
         id="path22"
         style="fill:#ffffff;fill-opacity:1;fill-rule:nonzero;stroke:none"
         d="m 3487.92,315.434 c -71.9,0 -128.23,59.394 -128.23,135.195 0,77.613 54.61,135.211 126.99,135.211 71.94,0 128.24,-59.391 128.24,-135.211 l 0,-1.27 c 0,-75.097 -55.78,-133.925 -127,-133.925 m 0,307.691 c -95.26,0 -169.88,-75.762 -169.88,-172.496 0,-97.266 74.07,-172.5 168.64,-172.5 95.3,0 169.94,75.762 169.94,172.5 0,97.281 -74.14,172.496 -168.7,172.496" /><path
         id="path24"
         style="fill:#ffffff;fill-opacity:1;fill-rule:nonzero;stroke:none"
         d="m 3956.67,615.617 c 0,0 -112.99,-263.758 -120.18,-280.515 -7.12,16.757 -119.03,280.515 -119.03,280.515 l -45.07,0 148.09,-332.449 31.9,0 148.09,332.449 -43.8,0" /><path
         id="path26"
         style="fill:#ffffff;fill-opacity:1;fill-rule:nonzero;stroke:none"
         d="m 4169.64,586.465 c 74.08,0 105.32,-61.774 110.4,-116.578 l -223.67,0 c 7.32,67.625 53.95,116.578 113.27,116.578 m 153.02,-137.106 c 0,102.84 -62.37,173.766 -151.72,173.766 -87.85,0 -156.69,-75.488 -156.69,-171.852 0,-99.238 69.54,-173.144 161.74,-173.144 55.12,0 95.81,18.496 136.08,61.855 l 2.87,3.125 -27.63,24.454 -2.75,-2.95 c -31.22,-33.554 -65.31,-49.179 -107.33,-49.179 -65.22,0 -113.96,48.652 -120.9,118.437 l 265.43,0 0.9,15.488" /><path
         id="path28"
         style="fill:#ffffff;fill-opacity:1;fill-rule:nonzero;stroke:none"
         d="m 2559.2,623.125 c -48.53,0 -85.71,-20.477 -111.91,-59.043 l 0,154.211 -39.15,0 0,-432.605 39.15,0 0,190.136 c 0,64.11 45.24,110.641 107.51,110.641 61.36,0 97.99,-39.481 97.99,-105.563 l 0,-195.214 39.16,0 0,200.859 c 0,82.984 -52.1,136.578 -132.75,136.578" /><path
         id="path30"
         style="fill:#ffffff;fill-opacity:1;fill-rule:nonzero;stroke:none"
         d="m 1796.37,615.313 c -56.01,0 -106.4,-26.153 -138.33,-71.786 -20.76,-29.675 -31.71,-64.48 -31.71,-100.711 l 0,-157.128 39.22,0 0,158.378 c 0,75.118 56.88,133.954 129.52,133.954 l 6.66,0 0,37.273 -5.36,0.02" /><path
         id="path32"
         style="fill:#ffffff;fill-opacity:1;fill-rule:nonzero;stroke:none"
         d="m 2930.5,280.492 0,36.582 c -33.31,0 -64.44,6.387 -86.74,29.199 -14.78,15.118 -26.09,39.766 -26.09,64.551 0,24.766 0,168.121 0,168.121 l 112.83,0 0,36.672 -112.83,0 0,102.676 -39.03,0 c 0,0 -0.21,-276.258 -0.21,-307.254 0,-31.016 11.22,-62.148 31.97,-85.332 27.64,-30.898 66.88,-45.215 120.1,-45.215" /><g
         id="g34"><g
           clip-path="url(#clipPath38)"
           id="g36"><path
             id="path48"
             style="fill:url(#linearGradient42);fill-opacity:1;fill-rule:nonzero;stroke:none"
             d="m 757.105,596.578 c 0,4.242 -1.214,8.184 -3.16,11.61 l -50.054,87.07 -58.328,101.347 c -11.633,19.797 -33.211,33.106 -57.836,33.106 l -218.227,0 c -13.094,0 -23.672,-10.609 -23.672,-23.68 0,-4.238 1.188,-8.156 3.156,-11.582 l 56.996,-99.191 51.383,-89.266 c 11.637,-19.781 33.211,-33.09 57.84,-33.09 l 218.25,0 c 13.043,0 23.652,10.61 23.652,23.676 z m 0,-76.984 c 0,-4.239 -1.214,-8.184 -3.16,-11.61 L 703.891,420.902 645.563,319.547 C 633.93,299.781 612.352,286.469 587.727,286.469 l -218.227,0 c -13.094,0 -23.672,10.578 -23.672,23.664 0,4.226 1.188,8.191 3.156,11.621 l 56.996,99.148 51.383,89.27 c 11.637,19.793 33.211,33.105 57.84,33.105 l 218.25,0 c 13.043,0 23.652,-10.613 23.652,-23.683" /></g></g><g
         id="g50"><g
           clip-path="url(#clipPath54)"
           id="g52"><path
             id="path64"
             style="fill:url(#linearGradient58);fill-opacity:1;fill-rule:nonzero;stroke:none"
             d="m 677.262,233.168 c 0,-4.258 1.191,-8.203 3.136,-11.641 l 50.059,-87.05 58.297,-101.3559 C 800.445,13.3281 821.965,0 846.617,0 l 218.233,0 c 13.09,0 23.68,10.6211 23.68,23.7188 0,4.25 -1.19,8.1523 -3.16,11.6093 l -57,99.1489 -51.386,89.257 C 965.32,243.5 943.773,256.82 919.145,256.82 l -218.223,0 c -13.074,0 -23.66,-10.586 -23.66,-23.652 z m 411.268,286.426 c 0,-4.239 -1.19,-8.184 -3.14,-11.61 L 1035.33,420.902 977.008,319.547 C 965.32,299.781 943.797,286.469 919.172,286.469 l -218.25,0 c -13.074,0 -23.66,10.578 -23.66,23.664 0,4.226 1.191,8.191 3.136,11.621 l 57.028,99.148 51.355,89.27 c 11.664,19.793 33.184,33.105 57.836,33.105 l 218.263,0 c 13.09,0 23.65,-10.613 23.65,-23.683" /></g></g><g
         id="g66"><g
           clip-path="url(#clipPath70)"
           id="g68"><path
             id="path80"
             style="fill:url(#linearGradient74);fill-opacity:1;fill-rule:nonzero;stroke:none"
             d="m 126.949,1071.48 c -3.672,-2.14 -6.476,-5.13 -8.504,-8.54 L 67.7891,976.223 8.84375,875.234 C -2.54688,855.285 -3.35547,829.98 8.88281,808.621 L 117.395,619.234 c 6.503,-11.343 20.964,-15.246 32.289,-8.75 3.687,2.094 6.507,5.094 8.507,8.536 l 57.704,98.714 51.894,88.969 c 11.383,19.957 12.234,45.246 -0.023,66.617 L 159.27,1062.71 c -6.504,11.34 -20.965,15.25 -32.321,8.77 z M 322.605,777.613 431.113,588.238 c 12.207,-21.363 11.399,-46.691 0.032,-66.633 L 379.246,432.66 321.539,333.922 c -2.012,-3.449 -4.793,-6.438 -8.496,-8.547 -11.336,-6.523 -25.824,-2.566 -32.316,8.789 L 172.234,523.512 c -12.261,21.371 -11.421,46.687 -0.054,66.625 l 58.945,100.976 50.652,86.731 c 2.024,3.441 4.836,6.426 8.52,8.558 11.355,6.481 25.801,2.539 32.308,-8.789" /></g></g><path
         id="path82"
         style="fill:#ffffff;fill-opacity:1;fill-rule:nonzero;stroke:none"
         d="m 4399.54,599.43 c 3.29,0 5.26,1.609 5.26,4.136 l 0,0.133 c 0,2.664 -1.97,4.137 -5.26,4.137 l -6.58,0 0,-8.406 6.58,0 z m -11.63,12.957 11.84,0 c 3.5,0 6.24,-1.047 8.05,-2.871 1.4,-1.332 2.17,-3.223 2.17,-5.532 l 0,-0.14 c 0,-4.274 -2.52,-6.934 -6.16,-7.985 l 7.15,-10.015 -6.03,0 -6.44,9.176 -5.53,0 0,-9.176 -5.05,0 0,26.543 z m 32.92,-14.008 0,0.141 c 0,12.539 -9.73,22.691 -22.62,22.691 -12.95,0 -22.76,-10.293 -22.76,-22.832 l 0,-0.137 c 0,-12.539 9.74,-22.695 22.62,-22.695 12.96,0 22.76,10.297 22.76,22.832 z m -48.04,-0.137 0,0.137 c 0,13.801 11.21,25.355 25.42,25.355 14.21,0 25.29,-11.414 25.29,-25.214 l 0,-0.141 c 0,-13.793 -11.21,-25.352 -25.43,-25.352 -14.22,0 -25.28,11.418 -25.28,25.215" /></g></g></svg>
